<mxfile host="app.diagrams.net" agent="Mozilla/5.0 (Windows NT 10.0; Win64; x64) AppleWebKit/537.36 (KHTML, like Gecko) Chrome/131.0.0.0 Safari/537.36" version="26.0.5">
  <diagram name="Page-1" id="D3vvwa5dHvyxvlZcegTK">
    <mxGraphModel dx="1434" dy="772" grid="1" gridSize="10" guides="1" tooltips="1" connect="1" arrows="1" fold="1" page="1" pageScale="1" pageWidth="850" pageHeight="1100" math="0" shadow="0">
      <root>
        <mxCell id="0" />
        <mxCell id="1" parent="0" />
        <mxCell id="sJrR6-XRbNcx38wTDFlZ-1" value="View" style="rounded=1;whiteSpace=wrap;html=1;" vertex="1" parent="1">
          <mxGeometry x="365" y="140" width="120" height="60" as="geometry" />
        </mxCell>
        <mxCell id="sJrR6-XRbNcx38wTDFlZ-2" value="Controller" style="rounded=1;whiteSpace=wrap;html=1;" vertex="1" parent="1">
          <mxGeometry x="365" y="260" width="120" height="60" as="geometry" />
        </mxCell>
        <mxCell id="sJrR6-XRbNcx38wTDFlZ-3" value="" style="rounded=1;whiteSpace=wrap;html=1;" vertex="1" parent="1">
          <mxGeometry x="365" y="370" width="120" height="60" as="geometry" />
        </mxCell>
        <mxCell id="sJrR6-XRbNcx38wTDFlZ-4" value="" style="endArrow=classic;html=1;rounded=0;" edge="1" parent="1">
          <mxGeometry width="50" height="50" relative="1" as="geometry">
            <mxPoint x="390" y="260" as="sourcePoint" />
            <mxPoint x="390" y="204" as="targetPoint" />
          </mxGeometry>
        </mxCell>
        <mxCell id="sJrR6-XRbNcx38wTDFlZ-5" value="" style="endArrow=classic;html=1;rounded=0;" edge="1" parent="1">
          <mxGeometry width="50" height="50" relative="1" as="geometry">
            <mxPoint x="450" y="206" as="sourcePoint" />
            <mxPoint x="450" y="260" as="targetPoint" />
          </mxGeometry>
        </mxCell>
        <mxCell id="sJrR6-XRbNcx38wTDFlZ-6" value="" style="endArrow=classic;html=1;rounded=0;" edge="1" parent="1">
          <mxGeometry width="50" height="50" relative="1" as="geometry">
            <mxPoint x="400" y="380" as="sourcePoint" />
            <mxPoint x="400" y="320" as="targetPoint" />
          </mxGeometry>
        </mxCell>
        <mxCell id="sJrR6-XRbNcx38wTDFlZ-7" value="" style="endArrow=classic;html=1;rounded=0;" edge="1" parent="1">
          <mxGeometry width="50" height="50" relative="1" as="geometry">
            <mxPoint x="450" y="320" as="sourcePoint" />
            <mxPoint x="450" y="374" as="targetPoint" />
          </mxGeometry>
        </mxCell>
        <mxCell id="sJrR6-XRbNcx38wTDFlZ-8" value="Model" style="text;html=1;align=center;verticalAlign=middle;whiteSpace=wrap;rounded=0;" vertex="1" parent="1">
          <mxGeometry x="390" y="380" width="60" height="30" as="geometry" />
        </mxCell>
        <mxCell id="sJrR6-XRbNcx38wTDFlZ-9" value="1. Model has entities in it.&lt;div&gt;2. Also the logic to save entites in DB and DB connections&lt;br&gt;&lt;div&gt;&lt;br&gt;&lt;/div&gt;&lt;/div&gt;" style="text;html=1;align=center;verticalAlign=middle;whiteSpace=wrap;rounded=0;" vertex="1" parent="1">
          <mxGeometry x="485" y="390" width="245" height="110" as="geometry" />
        </mxCell>
        <mxCell id="sJrR6-XRbNcx38wTDFlZ-10" value="Controller has all business logic in it" style="text;html=1;align=center;verticalAlign=middle;whiteSpace=wrap;rounded=0;" vertex="1" parent="1">
          <mxGeometry x="485" y="280" width="185" height="50" as="geometry" />
        </mxCell>
        <mxCell id="sJrR6-XRbNcx38wTDFlZ-11" value="View is frontend" style="text;html=1;align=center;verticalAlign=middle;whiteSpace=wrap;rounded=0;" vertex="1" parent="1">
          <mxGeometry x="500" y="150" width="160" height="30" as="geometry" />
        </mxCell>
        <mxCell id="sJrR6-XRbNcx38wTDFlZ-12" value="" style="endArrow=none;html=1;rounded=0;" edge="1" parent="1">
          <mxGeometry width="50" height="50" relative="1" as="geometry">
            <mxPoint y="610" as="sourcePoint" />
            <mxPoint x="1140" y="600" as="targetPoint" />
          </mxGeometry>
        </mxCell>
      </root>
    </mxGraphModel>
  </diagram>
</mxfile>
